<svg xmlns="http://www.w3.org/2000/svg" viewBox="0 0 128 128" role="img" aria-label="Chong Choul brand icon">
  <path
    d="M64 21c-13 0-24 10.5-24 23.6 0 13 16.6 31.2 20.9 35.7a4.1 4.1 0 0 0 6.1 0C71.4 75.8 88 57.6 88 44.6 88 31.5 77 21 64 21Zm0 33.5a10 10 0 1 1 0-20 10 10 0 0 1 0 20Z"
    fill="#2ca7ff"
    opacity="0.95"
  />

  <path
    d="M31 79c2.4-6.8 9-11.3 16.2-11.3h33.6c7.3 0 13.8 4.5 16.2 11.3l3.4 9.8c1 3-.5 5.2-3.8 5.2H31.4c-3.3 0-4.8-2.2-3.8-5.2L31 79Z"
    fill="#2ca7ff"
  />

  <path
    d="M45 71.8h38M31.8 81.7h64.4"
    stroke="#1457d8"
    stroke-width="4"
    stroke-linecap="round"
    opacity="0.22"
  />

  <circle cx="42" cy="94" r="7.2" fill="#2ca7ff" />
  <circle cx="86" cy="94" r="7.2" fill="#2ca7ff" />
</svg>
